<svg width="439" height="95" viewBox="0 0 439 95" fill="none" xmlns="http://www.w3.org/2000/svg">
<path d="M83.25 64V39.2H88.9L89.4 43.4C90.1667 41.9333 91.2667 40.7667 92.7 39.9C94.1667 39.0333 95.8833 38.6 97.85 38.6C100.917 38.6 103.3 39.5667 105 41.5C106.7 43.4333 107.55 46.2667 107.55 50V64H101.15V50.6C101.15 48.4667 100.717 46.8333 99.85 45.7C98.9833 44.5667 97.6333 44 95.8 44C94 44 92.5167 44.6333 91.35 45.9C90.2167 47.1667 89.65 48.9333 89.65 51.2V64H83.25ZM122.97 64.6C119.87 64.6 117.47 63.6333 115.77 61.7C114.103 59.7667 113.27 56.9333 113.27 53.2V39.2H119.62V52.6C119.62 54.7333 120.053 56.3667 120.92 57.5C121.787 58.6333 123.153 59.2 125.02 59.2C126.787 59.2 128.237 58.5667 129.37 57.3C130.537 56.0333 131.12 54.2667 131.12 52V39.2H137.52V64H131.87L131.37 59.8C130.603 61.2667 129.487 62.4333 128.02 63.3C126.587 64.1667 124.903 64.6 122.97 64.6ZM141.74 64L150.74 51.6L141.74 39.2H148.59L154.89 48L161.14 39.2H168.04L158.99 51.6L168.04 64H161.14L154.89 55.2L148.59 64H141.74ZM183.167 64C180.567 64 178.484 63.3667 176.917 62.1C175.351 60.8333 174.567 58.5833 174.567 55.35V44.55H170.317V39.2H174.567L175.317 32.55H180.967V39.2H187.667V44.55H180.967V55.4C180.967 56.6 181.217 57.4333 181.717 57.9C182.251 58.3333 183.151 58.55 184.417 58.55H187.517V64H183.167ZM191.062 69.55L203.562 25.15H209.812L197.262 69.55H191.062Z" fill="white"/>
<path d="M222.757 64.6C220.624 64.6 218.874 64.2667 217.507 63.6C216.14 62.9 215.124 61.9833 214.457 60.85C213.79 59.7167 213.457 58.4667 213.457 57.1C213.457 54.8 214.357 52.9333 216.157 51.5C217.957 50.0667 220.657 49.35 224.257 49.35H230.557V48.75C230.557 47.05 230.074 45.8 229.107 45C228.14 44.2 226.94 43.8 225.507 43.8C224.207 43.8 223.074 44.1167 222.107 44.75C221.14 45.35 220.54 46.25 220.307 47.45H214.057C214.224 45.65 214.824 44.0833 215.857 42.75C216.924 41.4167 218.29 40.4 219.957 39.7C221.624 38.9667 223.49 38.6 225.557 38.6C229.09 38.6 231.874 39.4833 233.907 41.25C235.94 43.0167 236.957 45.5167 236.957 48.75V64H231.507L230.907 60C230.174 61.3333 229.14 62.4333 227.807 63.3C226.507 64.1667 224.824 64.6 222.757 64.6ZM224.207 59.6C226.04 59.6 227.457 59 228.457 57.8C229.49 56.6 230.14 55.1167 230.407 53.35H224.957C223.257 53.35 222.04 53.6667 221.307 54.3C220.574 54.9 220.207 55.65 220.207 56.55C220.207 57.5167 220.574 58.2667 221.307 58.8C222.04 59.3333 223.007 59.6 224.207 59.6ZM252.364 64.6C249.264 64.6 246.864 63.6333 245.164 61.7C243.498 59.7667 242.664 56.9333 242.664 53.2V39.2H249.014V52.6C249.014 54.7333 249.448 56.3667 250.314 57.5C251.181 58.6333 252.548 59.2 254.414 59.2C256.181 59.2 257.631 58.5667 258.764 57.3C259.931 56.0333 260.514 54.2667 260.514 52V39.2H266.914V64H261.264L260.764 59.8C259.998 61.2667 258.881 62.4333 257.414 63.3C255.981 64.1667 254.298 64.6 252.364 64.6ZM284.534 64C281.934 64 279.851 63.3667 278.284 62.1C276.718 60.8333 275.934 58.5833 275.934 55.35V44.55H271.684V39.2H275.934L276.684 32.55H282.334V39.2H289.034V44.55H282.334V55.4C282.334 56.6 282.584 57.4333 283.084 57.9C283.618 58.3333 284.518 58.55 285.784 58.55H288.884V64H284.534ZM294.529 64V28H300.929V43C301.763 41.6333 302.879 40.5667 304.279 39.8C305.713 39 307.346 38.6 309.179 38.6C312.246 38.6 314.613 39.5667 316.279 41.5C317.979 43.4333 318.829 46.2667 318.829 50V64H312.479V50.6C312.479 48.4667 312.046 46.8333 311.179 45.7C310.346 44.5667 309.013 44 307.179 44C305.379 44 303.879 44.6333 302.679 45.9C301.513 47.1667 300.929 48.9333 300.929 51.2V64H294.529Z" fill="#00C58E"/>
<path fill-rule="evenodd" clip-rule="evenodd" d="M35.0396 20.0483L29.6379 25.45C24.1464 30.9415 24.1464 39.845 29.6379 45.3365L50.4141 66.1126C47.5979 69.8507 44.4534 72.7833 41.3249 75.0257C38.2089 77.2592 34.06 77.4521 30.7932 75.4456C21.106 69.4956 13.6479 58.3406 12.0413 39.553C11.6289 34.7297 14.3383 30.2526 18.5648 27.8923L29.6615 21.6954C31.344 20.7559 33.1789 20.2068 35.0396 20.0483ZM41.8004 21.2422L33.6152 29.4273C30.3203 32.7222 30.3203 38.0643 33.6152 41.3592L53.5686 61.3126C56.833 55.589 59.3092 48.4194 60.2345 39.5483C60.7367 34.7335 58.0114 30.2526 53.7848 27.8923L42.6881 21.6954C42.3966 21.5326 42.1004 21.3815 41.8004 21.2422Z" fill="url(#paint0_linear)"/>
<defs>
<linearGradient id="paint0_linear" x1="36.3278" y1="24.8468" x2="36.3278" y2="54.7283" gradientUnits="userSpaceOnUse">
<stop stop-color="#00C591"/>
<stop offset="1" stop-color="#108775"/>
</linearGradient>
</defs>
</svg>
