<svg width="69" height="81" viewBox="0 0 69 81" fill="none" xmlns="http://www.w3.org/2000/svg">
<path fill-rule="evenodd" clip-rule="evenodd" d="M35.6405 0.0415874L25.0861 10.596C17.2756 18.4065 17.2756 31.0698 25.0861 38.8802L53.3899 67.184C49.7137 71.7465 45.7019 75.3996 41.7084 78.2621C37.2765 81.4387 31.3756 81.7131 26.7293 78.8593C12.9514 70.3968 2.34384 54.5311 0.058806 27.8099C-0.527832 20.9497 3.32567 14.582 9.33703 11.225L25.1196 2.41138C28.3764 0.592676 32.0348 -0.197254 35.6405 0.0415874ZM44.2486 2.74721L30.743 16.2528C26.0567 20.9391 26.0567 28.5371 30.743 33.2234L58.0652 60.5456C63.2276 52.1254 67.1889 41.3616 68.6031 27.8032C69.3174 20.9552 65.4412 14.582 59.4298 11.225L44.2486 2.74721Z" fill="url(#paint0_linear)"/>
<defs>
<linearGradient id="paint0_linear" x1="34.6008" y1="9.7381" x2="34.6008" y2="52.2381" gradientUnits="userSpaceOnUse">
<stop stop-color="#00C591"/>
<stop offset="1" stop-color="#108775"/>
</linearGradient>
</defs>
</svg>
