<svg width="1280" height="640" viewBox="0 0 1280 640" fill="none" xmlns="http://www.w3.org/2000/svg">
<rect width="1280" height="640" fill="#1A202C"/>
<g filter="url(#filter0_i)">
<path d="M331.433 380.84H345.033V384H327.113V381.12L340.633 359.28H327.273V356.12H344.953V359L331.433 380.84ZM369.994 372.2C369.994 372.893 369.954 373.627 369.874 374.4H352.354C352.487 376.56 353.221 378.253 354.554 379.48C355.914 380.68 357.554 381.28 359.474 381.28C361.047 381.28 362.354 380.92 363.394 380.2C364.461 379.453 365.207 378.467 365.634 377.24H369.554C368.967 379.347 367.794 381.067 366.034 382.4C364.274 383.707 362.087 384.36 359.474 384.36C357.394 384.36 355.527 383.893 353.874 382.96C352.247 382.027 350.967 380.707 350.034 379C349.101 377.267 348.634 375.267 348.634 373C348.634 370.733 349.087 368.747 349.994 367.04C350.901 365.333 352.167 364.027 353.794 363.12C355.447 362.187 357.341 361.72 359.474 361.72C361.554 361.72 363.394 362.173 364.994 363.08C366.594 363.987 367.821 365.24 368.674 366.84C369.554 368.413 369.994 370.2 369.994 372.2ZM366.234 371.44C366.234 370.053 365.927 368.867 365.314 367.88C364.701 366.867 363.861 366.107 362.794 365.6C361.754 365.067 360.594 364.8 359.314 364.8C357.474 364.8 355.901 365.387 354.594 366.56C353.314 367.733 352.581 369.36 352.394 371.44H366.234ZM378.439 365.64C379.079 364.387 379.985 363.413 381.159 362.72C382.359 362.027 383.812 361.68 385.519 361.68V365.44H384.559C380.479 365.44 378.439 367.653 378.439 372.08V384H374.799V362.08H378.439V365.64ZM399.281 384.36C397.227 384.36 395.361 383.893 393.681 382.96C392.027 382.027 390.721 380.707 389.761 379C388.827 377.267 388.361 375.267 388.361 373C388.361 370.76 388.841 368.787 389.801 367.08C390.787 365.347 392.121 364.027 393.801 363.12C395.481 362.187 397.361 361.72 399.441 361.72C401.521 361.72 403.401 362.187 405.081 363.12C406.761 364.027 408.081 365.333 409.041 367.04C410.027 368.747 410.521 370.733 410.521 373C410.521 375.267 410.014 377.267 409.001 379C408.014 380.707 406.667 382.027 404.961 382.96C403.254 383.893 401.361 384.36 399.281 384.36ZM399.281 381.16C400.587 381.16 401.814 380.853 402.961 380.24C404.107 379.627 405.027 378.707 405.721 377.48C406.441 376.253 406.801 374.76 406.801 373C406.801 371.24 406.454 369.747 405.761 368.52C405.067 367.293 404.161 366.387 403.041 365.8C401.921 365.187 400.707 364.88 399.401 364.88C398.067 364.88 396.841 365.187 395.721 365.8C394.627 366.387 393.747 367.293 393.081 368.52C392.414 369.747 392.081 371.24 392.081 373C392.081 374.787 392.401 376.293 393.041 377.52C393.707 378.747 394.587 379.667 395.681 380.28C396.774 380.867 397.974 381.16 399.281 381.16ZM430.507 367.8V370.88H414.547V367.8H430.507ZM440.978 366.16C441.724 364.853 442.818 363.787 444.258 362.96C445.698 362.133 447.338 361.72 449.178 361.72C451.151 361.72 452.924 362.187 454.498 363.12C456.071 364.053 457.311 365.373 458.218 367.08C459.124 368.76 459.578 370.72 459.578 372.96C459.578 375.173 459.124 377.147 458.218 378.88C457.311 380.613 456.058 381.96 454.458 382.92C452.884 383.88 451.124 384.36 449.178 384.36C447.284 384.36 445.618 383.947 444.178 383.12C442.764 382.293 441.698 381.24 440.978 379.96V384H437.338V354.4H440.978V366.16ZM455.858 372.96C455.858 371.307 455.524 369.867 454.858 368.64C454.191 367.413 453.284 366.48 452.138 365.84C451.018 365.2 449.778 364.88 448.418 364.88C447.084 364.88 445.844 365.213 444.698 365.88C443.578 366.52 442.671 367.467 441.978 368.72C441.311 369.947 440.978 371.373 440.978 373C440.978 374.653 441.311 376.107 441.978 377.36C442.671 378.587 443.578 379.533 444.698 380.2C445.844 380.84 447.084 381.16 448.418 381.16C449.778 381.16 451.018 380.84 452.138 380.2C453.284 379.533 454.191 378.587 454.858 377.36C455.524 376.107 455.858 374.64 455.858 372.96ZM473.929 384.36C471.876 384.36 470.009 383.893 468.329 382.96C466.676 382.027 465.369 380.707 464.409 379C463.476 377.267 463.009 375.267 463.009 373C463.009 370.76 463.489 368.787 464.449 367.08C465.436 365.347 466.769 364.027 468.449 363.12C470.129 362.187 472.009 361.72 474.089 361.72C476.169 361.72 478.049 362.187 479.729 363.12C481.409 364.027 482.729 365.333 483.689 367.04C484.676 368.747 485.169 370.733 485.169 373C485.169 375.267 484.662 377.267 483.649 379C482.662 380.707 481.316 382.027 479.609 382.96C477.902 383.893 476.009 384.36 473.929 384.36ZM473.929 381.16C475.236 381.16 476.462 380.853 477.609 380.24C478.756 379.627 479.676 378.707 480.369 377.48C481.089 376.253 481.449 374.76 481.449 373C481.449 371.24 481.102 369.747 480.409 368.52C479.716 367.293 478.809 366.387 477.689 365.8C476.569 365.187 475.356 364.88 474.049 364.88C472.716 364.88 471.489 365.187 470.369 365.8C469.276 366.387 468.396 367.293 467.729 368.52C467.062 369.747 466.729 371.24 466.729 373C466.729 374.787 467.049 376.293 467.689 377.52C468.356 378.747 469.236 379.667 470.329 380.28C471.422 380.867 472.622 381.16 473.929 381.16ZM491.835 358.52C491.142 358.52 490.555 358.28 490.075 357.8C489.595 357.32 489.355 356.733 489.355 356.04C489.355 355.347 489.595 354.76 490.075 354.28C490.555 353.8 491.142 353.56 491.835 353.56C492.502 353.56 493.062 353.8 493.515 354.28C493.995 354.76 494.235 355.347 494.235 356.04C494.235 356.733 493.995 357.32 493.515 357.8C493.062 358.28 492.502 358.52 491.835 358.52ZM493.595 362.08V384H489.955V362.08H493.595ZM503.439 354.4V384H499.799V354.4H503.439ZM529.643 372.2C529.643 372.893 529.603 373.627 529.523 374.4H512.003C512.136 376.56 512.869 378.253 514.203 379.48C515.563 380.68 517.203 381.28 519.123 381.28C520.696 381.28 522.003 380.92 523.043 380.2C524.109 379.453 524.856 378.467 525.283 377.24H529.203C528.616 379.347 527.443 381.067 525.683 382.4C523.923 383.707 521.736 384.36 519.123 384.36C517.043 384.36 515.176 383.893 513.523 382.96C511.896 382.027 510.616 380.707 509.683 379C508.749 377.267 508.283 375.267 508.283 373C508.283 370.733 508.736 368.747 509.643 367.04C510.549 365.333 511.816 364.027 513.443 363.12C515.096 362.187 516.989 361.72 519.123 361.72C521.203 361.72 523.043 362.173 524.643 363.08C526.243 363.987 527.469 365.24 528.323 366.84C529.203 368.413 529.643 370.2 529.643 372.2ZM525.883 371.44C525.883 370.053 525.576 368.867 524.963 367.88C524.349 366.867 523.509 366.107 522.443 365.6C521.403 365.067 520.243 364.8 518.963 364.8C517.123 364.8 515.549 365.387 514.243 366.56C512.963 367.733 512.229 369.36 512.043 371.44H525.883ZM538.087 365.64C538.727 364.387 539.634 363.413 540.807 362.72C542.007 362.027 543.461 361.68 545.167 361.68V365.44H544.207C540.127 365.44 538.087 367.653 538.087 372.08V384H534.447V362.08H538.087V365.64ZM553.009 366.12C553.729 364.867 554.796 363.827 556.209 363C557.649 362.147 559.316 361.72 561.209 361.72C563.156 361.72 564.916 362.187 566.489 363.12C568.089 364.053 569.342 365.373 570.249 367.08C571.156 368.76 571.609 370.72 571.609 372.96C571.609 375.173 571.156 377.147 570.249 378.88C569.342 380.613 568.089 381.96 566.489 382.92C564.916 383.88 563.156 384.36 561.209 384.36C559.342 384.36 557.689 383.947 556.249 383.12C554.836 382.267 553.756 381.213 553.009 379.96V394.4H549.369V362.08H553.009V366.12ZM567.889 372.96C567.889 371.307 567.556 369.867 566.889 368.64C566.222 367.413 565.316 366.48 564.169 365.84C563.049 365.2 561.809 364.88 560.449 364.88C559.116 364.88 557.876 365.213 556.729 365.88C555.609 366.52 554.702 367.467 554.009 368.72C553.342 369.947 553.009 371.373 553.009 373C553.009 374.653 553.342 376.107 554.009 377.36C554.702 378.587 555.609 379.533 556.729 380.2C557.876 380.84 559.116 381.16 560.449 381.16C561.809 381.16 563.049 380.84 564.169 380.2C565.316 379.533 566.222 378.587 566.889 377.36C567.556 376.107 567.889 374.64 567.889 372.96ZM580.04 354.4V384H576.4V354.4H580.04ZM584.884 372.96C584.884 370.72 585.337 368.76 586.244 367.08C587.151 365.373 588.391 364.053 589.964 363.12C591.564 362.187 593.337 361.72 595.284 361.72C597.204 361.72 598.871 362.133 600.284 362.96C601.697 363.787 602.751 364.827 603.444 366.08V362.08H607.124V384H603.444V379.92C602.724 381.2 601.644 382.267 600.204 383.12C598.791 383.947 597.137 384.36 595.244 384.36C593.297 384.36 591.537 383.88 589.964 382.92C588.391 381.96 587.151 380.613 586.244 378.88C585.337 377.147 584.884 375.173 584.884 372.96ZM603.444 373C603.444 371.347 603.111 369.907 602.444 368.68C601.777 367.453 600.871 366.52 599.724 365.88C598.604 365.213 597.364 364.88 596.004 364.88C594.644 364.88 593.404 365.2 592.284 365.84C591.164 366.48 590.271 367.413 589.604 368.64C588.937 369.867 588.604 371.307 588.604 372.96C588.604 374.64 588.937 376.107 589.604 377.36C590.271 378.587 591.164 379.533 592.284 380.2C593.404 380.84 594.644 381.16 596.004 381.16C597.364 381.16 598.604 380.84 599.724 380.2C600.871 379.533 601.777 378.587 602.444 377.36C603.111 376.107 603.444 374.653 603.444 373ZM617.715 365.08V378C617.715 379.067 617.942 379.827 618.395 380.28C618.849 380.707 619.635 380.92 620.755 380.92H623.435V384H620.155C618.129 384 616.609 383.533 615.595 382.6C614.582 381.667 614.075 380.133 614.075 378V365.08H611.235V362.08H614.075V356.56H617.715V362.08H623.435V365.08H617.715ZM647.846 372.2C647.846 372.893 647.806 373.627 647.726 374.4H630.206C630.339 376.56 631.072 378.253 632.406 379.48C633.766 380.68 635.406 381.28 637.326 381.28C638.899 381.28 640.206 380.92 641.246 380.2C642.312 379.453 643.059 378.467 643.486 377.24H647.406C646.819 379.347 645.646 381.067 643.886 382.4C642.126 383.707 639.939 384.36 637.326 384.36C635.246 384.36 633.379 383.893 631.726 382.96C630.099 382.027 628.819 380.707 627.886 379C626.952 377.267 626.486 375.267 626.486 373C626.486 370.733 626.939 368.747 627.846 367.04C628.752 365.333 630.019 364.027 631.646 363.12C633.299 362.187 635.192 361.72 637.326 361.72C639.406 361.72 641.246 362.173 642.846 363.08C644.446 363.987 645.672 365.24 646.526 366.84C647.406 368.413 647.846 370.2 647.846 372.2ZM644.086 371.44C644.086 370.053 643.779 368.867 643.166 367.88C642.552 366.867 641.712 366.107 640.646 365.6C639.606 365.067 638.446 364.8 637.166 364.8C635.326 364.8 633.752 365.387 632.446 366.56C631.166 367.733 630.432 369.36 630.246 371.44H644.086ZM661.954 372.96C661.954 370.72 662.408 368.76 663.314 367.08C664.221 365.373 665.461 364.053 667.034 363.12C668.634 362.187 670.408 361.72 672.354 361.72C674.274 361.72 675.941 362.133 677.354 362.96C678.768 363.787 679.821 364.827 680.514 366.08V362.08H684.194V384H680.514V379.92C679.794 381.2 678.714 382.267 677.274 383.12C675.861 383.947 674.208 384.36 672.314 384.36C670.368 384.36 668.608 383.88 667.034 382.92C665.461 381.96 664.221 380.613 663.314 378.88C662.408 377.147 661.954 375.173 661.954 372.96ZM680.514 373C680.514 371.347 680.181 369.907 679.514 368.68C678.848 367.453 677.941 366.52 676.794 365.88C675.674 365.213 674.434 364.88 673.074 364.88C671.714 364.88 670.474 365.2 669.354 365.84C668.234 366.48 667.341 367.413 666.674 368.64C666.008 369.867 665.674 371.307 665.674 372.96C665.674 374.64 666.008 376.107 666.674 377.36C667.341 378.587 668.234 379.533 669.354 380.2C670.474 380.84 671.714 381.16 673.074 381.16C674.434 381.16 675.674 380.84 676.794 380.2C677.941 379.533 678.848 378.587 679.514 377.36C680.181 376.107 680.514 374.653 680.514 373ZM709.786 362.08V384H706.146V380.76C705.452 381.88 704.479 382.76 703.226 383.4C701.999 384.013 700.639 384.32 699.146 384.32C697.439 384.32 695.906 383.973 694.546 383.28C693.186 382.56 692.106 381.493 691.306 380.08C690.532 378.667 690.146 376.947 690.146 374.92V362.08H693.746V374.44C693.746 376.6 694.292 378.267 695.386 379.44C696.479 380.587 697.972 381.16 699.866 381.16C701.812 381.16 703.346 380.56 704.466 379.36C705.586 378.16 706.146 376.413 706.146 374.12V362.08H709.786ZM720.372 365.08V378C720.372 379.067 720.598 379.827 721.052 380.28C721.505 380.707 722.292 380.92 723.412 380.92H726.092V384H722.812C720.785 384 719.265 383.533 718.252 382.6C717.238 381.667 716.732 380.133 716.732 378V365.08H713.892V362.08H716.732V356.56H720.372V362.08H726.092V365.08H720.372ZM741.382 361.68C743.035 361.68 744.529 362.04 745.862 362.76C747.195 363.453 748.235 364.507 748.982 365.92C749.755 367.333 750.142 369.053 750.142 371.08V384H746.542V371.6C746.542 369.413 745.995 367.747 744.902 366.6C743.809 365.427 742.315 364.84 740.422 364.84C738.502 364.84 736.969 365.44 735.822 366.64C734.702 367.84 734.142 369.587 734.142 371.88V384H730.502V354.4H734.142V365.2C734.862 364.08 735.849 363.213 737.102 362.6C738.382 361.987 739.809 361.68 741.382 361.68ZM776.088 372.2C776.088 372.893 776.048 373.627 775.968 374.4H758.448C758.581 376.56 759.314 378.253 760.648 379.48C762.008 380.68 763.648 381.28 765.568 381.28C767.141 381.28 768.448 380.92 769.488 380.2C770.554 379.453 771.301 378.467 771.728 377.24H775.648C775.061 379.347 773.888 381.067 772.128 382.4C770.368 383.707 768.181 384.36 765.568 384.36C763.488 384.36 761.621 383.893 759.968 382.96C758.341 382.027 757.061 380.707 756.128 379C755.194 377.267 754.728 375.267 754.728 373C754.728 370.733 755.181 368.747 756.088 367.04C756.994 365.333 758.261 364.027 759.888 363.12C761.541 362.187 763.434 361.72 765.568 361.72C767.648 361.72 769.488 362.173 771.088 363.08C772.688 363.987 773.914 365.24 774.768 366.84C775.648 368.413 776.088 370.2 776.088 372.2ZM772.328 371.44C772.328 370.053 772.021 368.867 771.408 367.88C770.794 366.867 769.954 366.107 768.888 365.6C767.848 365.067 766.688 364.8 765.408 364.8C763.568 364.8 761.994 365.387 760.688 366.56C759.408 367.733 758.674 369.36 758.488 371.44H772.328ZM791.573 361.68C794.239 361.68 796.399 362.493 798.053 364.12C799.706 365.72 800.533 368.04 800.533 371.08V384H796.933V371.6C796.933 369.413 796.386 367.747 795.293 366.6C794.199 365.427 792.706 364.84 790.813 364.84C788.893 364.84 787.359 365.44 786.213 366.64C785.093 367.84 784.533 369.587 784.533 371.88V384H780.893V362.08H784.533V365.2C785.253 364.08 786.226 363.213 787.453 362.6C788.706 361.987 790.079 361.68 791.573 361.68ZM810.918 365.08V378C810.918 379.067 811.145 379.827 811.598 380.28C812.052 380.707 812.838 380.92 813.958 380.92H816.638V384H813.358C811.332 384 809.812 383.533 808.798 382.6C807.785 381.667 807.278 380.133 807.278 378V365.08H804.438V362.08H807.278V356.56H810.918V362.08H816.638V365.08H810.918ZM822.929 358.52C822.235 358.52 821.649 358.28 821.169 357.8C820.689 357.32 820.449 356.733 820.449 356.04C820.449 355.347 820.689 354.76 821.169 354.28C821.649 353.8 822.235 353.56 822.929 353.56C823.595 353.56 824.155 353.8 824.609 354.28C825.089 354.76 825.329 355.347 825.329 356.04C825.329 356.733 825.089 357.32 824.609 357.8C824.155 358.28 823.595 358.52 822.929 358.52ZM824.689 362.08V384H821.049V362.08H824.689ZM829.533 373C829.533 370.733 829.986 368.76 830.893 367.08C831.799 365.373 833.053 364.053 834.653 363.12C836.279 362.187 838.133 361.72 840.213 361.72C842.906 361.72 845.119 362.373 846.853 363.68C848.613 364.987 849.773 366.8 850.333 369.12H846.413C846.039 367.787 845.306 366.733 844.213 365.96C843.146 365.187 841.813 364.8 840.213 364.8C838.133 364.8 836.453 365.52 835.173 366.96C833.893 368.373 833.253 370.387 833.253 373C833.253 375.64 833.893 377.68 835.173 379.12C836.453 380.56 838.133 381.28 840.213 381.28C841.813 381.28 843.146 380.907 844.213 380.16C845.279 379.413 846.013 378.347 846.413 376.96H850.333C849.746 379.2 848.573 381 846.813 382.36C845.053 383.693 842.853 384.36 840.213 384.36C838.133 384.36 836.279 383.893 834.653 382.96C833.053 382.027 831.799 380.707 830.893 379C829.986 377.293 829.533 375.293 829.533 373ZM853.829 372.96C853.829 370.72 854.283 368.76 855.189 367.08C856.096 365.373 857.336 364.053 858.909 363.12C860.509 362.187 862.283 361.72 864.229 361.72C866.149 361.72 867.816 362.133 869.229 362.96C870.643 363.787 871.696 364.827 872.389 366.08V362.08H876.069V384H872.389V379.92C871.669 381.2 870.589 382.267 869.149 383.12C867.736 383.947 866.083 384.36 864.189 384.36C862.243 384.36 860.483 383.88 858.909 382.92C857.336 381.96 856.096 380.613 855.189 378.88C854.283 377.147 853.829 375.173 853.829 372.96ZM872.389 373C872.389 371.347 872.056 369.907 871.389 368.68C870.723 367.453 869.816 366.52 868.669 365.88C867.549 365.213 866.309 364.88 864.949 364.88C863.589 364.88 862.349 365.2 861.229 365.84C860.109 366.48 859.216 367.413 858.549 368.64C857.883 369.867 857.549 371.307 857.549 372.96C857.549 374.64 857.883 376.107 858.549 377.36C859.216 378.587 860.109 379.533 861.229 380.2C862.349 380.84 863.589 381.16 864.949 381.16C866.309 381.16 867.549 380.84 868.669 380.2C869.816 379.533 870.723 378.587 871.389 377.36C872.056 376.107 872.389 374.653 872.389 373ZM886.661 365.08V378C886.661 379.067 886.887 379.827 887.341 380.28C887.794 380.707 888.581 380.92 889.701 380.92H892.381V384H889.101C887.074 384 885.554 383.533 884.541 382.6C883.527 381.667 883.021 380.133 883.021 378V365.08H880.181V362.08H883.021V356.56H886.661V362.08H892.381V365.08H886.661ZM898.671 358.52C897.978 358.52 897.391 358.28 896.911 357.8C896.431 357.32 896.191 356.733 896.191 356.04C896.191 355.347 896.431 354.76 896.911 354.28C897.391 353.8 897.978 353.56 898.671 353.56C899.338 353.56 899.898 353.8 900.351 354.28C900.831 354.76 901.071 355.347 901.071 356.04C901.071 356.733 900.831 357.32 900.351 357.8C899.898 358.28 899.338 358.52 898.671 358.52ZM900.431 362.08V384H896.791V362.08H900.431ZM916.195 384.36C914.141 384.36 912.275 383.893 910.595 382.96C908.941 382.027 907.635 380.707 906.675 379C905.741 377.267 905.275 375.267 905.275 373C905.275 370.76 905.755 368.787 906.715 367.08C907.701 365.347 909.035 364.027 910.715 363.12C912.395 362.187 914.275 361.72 916.355 361.72C918.435 361.72 920.315 362.187 921.995 363.12C923.675 364.027 924.995 365.333 925.955 367.04C926.941 368.747 927.435 370.733 927.435 373C927.435 375.267 926.928 377.267 925.915 379C924.928 380.707 923.581 382.027 921.875 382.96C920.168 383.893 918.275 384.36 916.195 384.36ZM916.195 381.16C917.501 381.16 918.728 380.853 919.875 380.24C921.021 379.627 921.941 378.707 922.635 377.48C923.355 376.253 923.715 374.76 923.715 373C923.715 371.24 923.368 369.747 922.675 368.52C921.981 367.293 921.075 366.387 919.955 365.8C918.835 365.187 917.621 364.88 916.315 364.88C914.981 364.88 913.755 365.187 912.635 365.8C911.541 366.387 910.661 367.293 909.995 368.52C909.328 369.747 908.995 371.24 908.995 373C908.995 374.787 909.315 376.293 909.955 377.52C910.621 378.747 911.501 379.667 912.595 380.28C913.688 380.867 914.888 381.16 916.195 381.16ZM942.901 361.68C945.567 361.68 947.727 362.493 949.381 364.12C951.034 365.72 951.861 368.04 951.861 371.08V384H948.261V371.6C948.261 369.413 947.714 367.747 946.621 366.6C945.527 365.427 944.034 364.84 942.141 364.84C940.221 364.84 938.687 365.44 937.541 366.64C936.421 367.84 935.861 369.587 935.861 371.88V384H932.221V362.08H935.861V365.2C936.581 364.08 937.554 363.213 938.781 362.6C940.034 361.987 941.407 361.68 942.901 361.68ZM466.25 444.36C464.57 444.36 463.063 444.08 461.73 443.52C460.397 442.933 459.343 442.133 458.57 441.12C457.797 440.08 457.37 438.893 457.29 437.56H461.05C461.157 438.653 461.663 439.547 462.57 440.24C463.503 440.933 464.717 441.28 466.21 441.28C467.597 441.28 468.69 440.973 469.49 440.36C470.29 439.747 470.69 438.973 470.69 438.04C470.69 437.08 470.263 436.373 469.41 435.92C468.557 435.44 467.237 434.973 465.45 434.52C463.823 434.093 462.49 433.667 461.45 433.24C460.437 432.787 459.557 432.133 458.81 431.28C458.09 430.4 457.73 429.253 457.73 427.84C457.73 426.72 458.063 425.693 458.73 424.76C459.397 423.827 460.343 423.093 461.57 422.56C462.797 422 464.197 421.72 465.77 421.72C468.197 421.72 470.157 422.333 471.65 423.56C473.143 424.787 473.943 426.467 474.05 428.6H470.41C470.33 427.453 469.863 426.533 469.01 425.84C468.183 425.147 467.063 424.8 465.65 424.8C464.343 424.8 463.303 425.08 462.53 425.64C461.757 426.2 461.37 426.933 461.37 427.84C461.37 428.56 461.597 429.16 462.05 429.64C462.53 430.093 463.117 430.467 463.81 430.76C464.53 431.027 465.517 431.333 466.77 431.68C468.343 432.107 469.623 432.533 470.61 432.96C471.597 433.36 472.437 433.973 473.13 434.8C473.85 435.627 474.223 436.707 474.25 438.04C474.25 439.24 473.917 440.32 473.25 441.28C472.583 442.24 471.637 443 470.41 443.56C469.21 444.093 467.823 444.36 466.25 444.36ZM498.829 422.08V444H495.189V440.76C494.495 441.88 493.522 442.76 492.269 443.4C491.042 444.013 489.682 444.32 488.189 444.32C486.482 444.32 484.949 443.973 483.589 443.28C482.229 442.56 481.149 441.493 480.349 440.08C479.575 438.667 479.189 436.947 479.189 434.92V422.08H482.789V434.44C482.789 436.6 483.335 438.267 484.429 439.44C485.522 440.587 487.015 441.16 488.909 441.16C490.855 441.16 492.389 440.56 493.509 439.36C494.629 438.16 495.189 436.413 495.189 434.12V422.08H498.829ZM508.615 426.12C509.335 424.867 510.401 423.827 511.815 423C513.255 422.147 514.921 421.72 516.815 421.72C518.761 421.72 520.521 422.187 522.095 423.12C523.695 424.053 524.948 425.373 525.855 427.08C526.761 428.76 527.215 430.72 527.215 432.96C527.215 435.173 526.761 437.147 525.855 438.88C524.948 440.613 523.695 441.96 522.095 442.92C520.521 443.88 518.761 444.36 516.815 444.36C514.948 444.36 513.295 443.947 511.855 443.12C510.441 442.267 509.361 441.213 508.615 439.96V454.4H504.975V422.08H508.615V426.12ZM523.495 432.96C523.495 431.307 523.161 429.867 522.495 428.64C521.828 427.413 520.921 426.48 519.775 425.84C518.655 425.2 517.415 424.88 516.055 424.88C514.721 424.88 513.481 425.213 512.335 425.88C511.215 426.52 510.308 427.467 509.615 428.72C508.948 429.947 508.615 431.373 508.615 433C508.615 434.653 508.948 436.107 509.615 437.36C510.308 438.587 511.215 439.533 512.335 440.2C513.481 440.84 514.721 441.16 516.055 441.16C517.415 441.16 518.655 440.84 519.775 440.2C520.921 439.533 521.828 438.587 522.495 437.36C523.161 436.107 523.495 434.64 523.495 432.96ZM535.646 426.12C536.366 424.867 537.432 423.827 538.846 423C540.286 422.147 541.952 421.72 543.846 421.72C545.792 421.72 547.552 422.187 549.126 423.12C550.726 424.053 551.979 425.373 552.886 427.08C553.792 428.76 554.246 430.72 554.246 432.96C554.246 435.173 553.792 437.147 552.886 438.88C551.979 440.613 550.726 441.96 549.126 442.92C547.552 443.88 545.792 444.36 543.846 444.36C541.979 444.36 540.326 443.947 538.886 443.12C537.472 442.267 536.392 441.213 535.646 439.96V454.4H532.006V422.08H535.646V426.12ZM550.526 432.96C550.526 431.307 550.192 429.867 549.526 428.64C548.859 427.413 547.952 426.48 546.806 425.84C545.686 425.2 544.446 424.88 543.086 424.88C541.752 424.88 540.512 425.213 539.366 425.88C538.246 426.52 537.339 427.467 536.646 428.72C535.979 429.947 535.646 431.373 535.646 433C535.646 434.653 535.979 436.107 536.646 437.36C537.339 438.587 538.246 439.533 539.366 440.2C540.512 440.84 541.752 441.16 543.086 441.16C544.446 441.16 545.686 440.84 546.806 440.2C547.952 439.533 548.859 438.587 549.526 437.36C550.192 436.107 550.526 434.64 550.526 432.96ZM568.597 444.36C566.544 444.36 564.677 443.893 562.997 442.96C561.344 442.027 560.037 440.707 559.077 439C558.144 437.267 557.677 435.267 557.677 433C557.677 430.76 558.157 428.787 559.117 427.08C560.104 425.347 561.437 424.027 563.117 423.12C564.797 422.187 566.677 421.72 568.757 421.72C570.837 421.72 572.717 422.187 574.397 423.12C576.077 424.027 577.397 425.333 578.357 427.04C579.344 428.747 579.837 430.733 579.837 433C579.837 435.267 579.33 437.267 578.317 439C577.33 440.707 575.984 442.027 574.277 442.96C572.57 443.893 570.677 444.36 568.597 444.36ZM568.597 441.16C569.904 441.16 571.13 440.853 572.277 440.24C573.424 439.627 574.344 438.707 575.037 437.48C575.757 436.253 576.117 434.76 576.117 433C576.117 431.24 575.77 429.747 575.077 428.52C574.384 427.293 573.477 426.387 572.357 425.8C571.237 425.187 570.024 424.88 568.717 424.88C567.384 424.88 566.157 425.187 565.037 425.8C563.944 426.387 563.064 427.293 562.397 428.52C561.73 429.747 561.397 431.24 561.397 433C561.397 434.787 561.717 436.293 562.357 437.52C563.024 438.747 563.904 439.667 564.997 440.28C566.09 440.867 567.29 441.16 568.597 441.16ZM588.263 425.64C588.903 424.387 589.81 423.413 590.983 422.72C592.183 422.027 593.636 421.68 595.343 421.68V425.44H594.383C590.303 425.44 588.263 427.653 588.263 432.08V444H584.623V422.08H588.263V425.64ZM603.985 425.08V438C603.985 439.067 604.212 439.827 604.665 440.28C605.118 440.707 605.905 440.92 607.025 440.92H609.705V444H606.425C604.398 444 602.878 443.533 601.865 442.6C600.852 441.667 600.345 440.133 600.345 438V425.08H597.505V422.08H600.345V416.56H603.985V422.08H609.705V425.08H603.985ZM633.699 425.08H629.099V444H625.459V425.08H622.619V422.08H625.459V420.52C625.459 418.067 626.086 416.28 627.339 415.16C628.619 414.013 630.659 413.44 633.459 413.44V416.48C631.859 416.48 630.726 416.8 630.059 417.44C629.419 418.053 629.099 419.08 629.099 420.52V422.08H633.699V425.08ZM647.503 444.36C645.45 444.36 643.583 443.893 641.903 442.96C640.25 442.027 638.943 440.707 637.983 439C637.05 437.267 636.583 435.267 636.583 433C636.583 430.76 637.063 428.787 638.023 427.08C639.01 425.347 640.343 424.027 642.023 423.12C643.703 422.187 645.583 421.72 647.663 421.72C649.743 421.72 651.623 422.187 653.303 423.12C654.983 424.027 656.303 425.333 657.263 427.04C658.25 428.747 658.743 430.733 658.743 433C658.743 435.267 658.237 437.267 657.223 439C656.237 440.707 654.89 442.027 653.183 442.96C651.477 443.893 649.583 444.36 647.503 444.36ZM647.503 441.16C648.81 441.16 650.037 440.853 651.183 440.24C652.33 439.627 653.25 438.707 653.943 437.48C654.663 436.253 655.023 434.76 655.023 433C655.023 431.24 654.677 429.747 653.983 428.52C653.29 427.293 652.383 426.387 651.263 425.8C650.143 425.187 648.93 424.88 647.623 424.88C646.29 424.88 645.063 425.187 643.943 425.8C642.85 426.387 641.97 427.293 641.303 428.52C640.637 429.747 640.303 431.24 640.303 433C640.303 434.787 640.623 436.293 641.263 437.52C641.93 438.747 642.81 439.667 643.903 440.28C644.997 440.867 646.197 441.16 647.503 441.16ZM667.169 425.64C667.809 424.387 668.716 423.413 669.889 422.72C671.089 422.027 672.543 421.68 674.249 421.68V425.44H673.289C669.209 425.44 667.169 427.653 667.169 432.08V444H663.529V422.08H667.169V425.64ZM711.035 444H707.395L692.755 421.8V444H689.115V416.08H692.755L707.395 438.24V416.08H711.035V444ZM736.68 422.08V444H733.04V440.76C732.347 441.88 731.373 442.76 730.12 443.4C728.893 444.013 727.533 444.32 726.04 444.32C724.333 444.32 722.8 443.973 721.44 443.28C720.08 442.56 719 441.493 718.2 440.08C717.427 438.667 717.04 436.947 717.04 434.92V422.08H720.64V434.44C720.64 436.6 721.187 438.267 722.28 439.44C723.373 440.587 724.867 441.16 726.76 441.16C728.707 441.16 730.24 440.56 731.36 439.36C732.48 438.16 733.04 436.413 733.04 434.12V422.08H736.68ZM754.266 444L749.066 435.84L744.066 444H740.266L747.346 433.12L740.266 422.08H744.386L749.586 430.2L754.546 422.08H758.346L751.306 432.92L758.386 444H754.266ZM766.407 425.08V438C766.407 439.067 766.633 439.827 767.087 440.28C767.54 440.707 768.327 440.92 769.447 440.92H772.127V444H768.847C766.82 444 765.3 443.533 764.287 442.6C763.273 441.667 762.767 440.133 762.767 438V425.08H759.927V422.08H762.767V416.56H766.407V422.08H772.127V425.08H766.407ZM777.697 444.24C777.004 444.24 776.417 444 775.937 443.52C775.457 443.04 775.217 442.453 775.217 441.76C775.217 441.067 775.457 440.48 775.937 440C776.417 439.52 777.004 439.28 777.697 439.28C778.364 439.28 778.924 439.52 779.377 440C779.857 440.48 780.097 441.067 780.097 441.76C780.097 442.453 779.857 443.04 779.377 443.52C778.924 444 778.364 444.24 777.697 444.24ZM786.895 418.52C786.202 418.52 785.615 418.28 785.135 417.8C784.682 417.32 784.455 416.733 784.455 416.04C784.455 415.347 784.682 414.76 785.135 414.28C785.615 413.8 786.202 413.56 786.895 413.56C787.589 413.56 788.162 413.8 788.615 414.28C789.095 414.76 789.335 415.347 789.335 416.04C789.335 416.733 789.095 417.32 788.615 417.8C788.162 418.28 787.589 418.52 786.895 418.52ZM788.695 448.76C788.695 450.707 788.202 452.133 787.215 453.04C786.229 453.947 784.789 454.4 782.895 454.4H780.775V451.32H782.295C783.309 451.32 784.015 451.12 784.415 450.72C784.842 450.32 785.055 449.64 785.055 448.68V422.08H788.695V448.76ZM802.617 444.36C800.937 444.36 799.431 444.08 798.097 443.52C796.764 442.933 795.711 442.133 794.937 441.12C794.164 440.08 793.737 438.893 793.657 437.56H797.417C797.524 438.653 798.031 439.547 798.937 440.24C799.871 440.933 801.084 441.28 802.577 441.28C803.964 441.28 805.057 440.973 805.857 440.36C806.657 439.747 807.057 438.973 807.057 438.04C807.057 437.08 806.631 436.373 805.777 435.92C804.924 435.44 803.604 434.973 801.817 434.52C800.191 434.093 798.857 433.667 797.817 433.24C796.804 432.787 795.924 432.133 795.177 431.28C794.457 430.4 794.097 429.253 794.097 427.84C794.097 426.72 794.431 425.693 795.097 424.76C795.764 423.827 796.711 423.093 797.937 422.56C799.164 422 800.564 421.72 802.137 421.72C804.564 421.72 806.524 422.333 808.017 423.56C809.511 424.787 810.311 426.467 810.417 428.6H806.777C806.697 427.453 806.231 426.533 805.377 425.84C804.551 425.147 803.431 424.8 802.017 424.8C800.711 424.8 799.671 425.08 798.897 425.64C798.124 426.2 797.737 426.933 797.737 427.84C797.737 428.56 797.964 429.16 798.417 429.64C798.897 430.093 799.484 430.467 800.177 430.76C800.897 431.027 801.884 431.333 803.137 431.68C804.711 432.107 805.991 432.533 806.977 432.96C807.964 433.36 808.804 433.973 809.497 434.8C810.217 435.627 810.591 436.707 810.617 438.04C810.617 439.24 810.284 440.32 809.617 441.28C808.951 442.24 808.004 443 806.777 443.56C805.577 444.093 804.191 444.36 802.617 444.36ZM820.476 416.12L820.036 436.12H816.996L816.556 416.12H820.476ZM818.676 444.24C817.982 444.24 817.396 444 816.916 443.52C816.436 443.04 816.196 442.453 816.196 441.76C816.196 441.067 816.436 440.48 816.916 440C817.396 439.52 817.982 439.28 818.676 439.28C819.342 439.28 819.902 439.52 820.356 440C820.836 440.48 821.076 441.067 821.076 441.76C821.076 442.453 820.836 443.04 820.356 443.52C819.902 444 819.342 444.24 818.676 444.24Z" fill="white"/>
</g>
<path d="M92.1654 65.9741L89.633 70.5876L80.9722 54.8057L54.3852 103.247H72.3864C72.3864 105.795 74.3497 107.861 76.7716 107.861H54.3852C52.8187 107.861 51.3713 106.981 50.5882 105.554C49.805 104.126 49.8051 102.368 50.5884 100.94L77.1754 52.499C77.9587 51.0715 79.4064 50.1921 80.9732 50.1921C82.5399 50.1921 83.9876 51.0715 84.7709 52.499L92.1654 65.9741Z" fill="#00C58E"/>
<path d="M111.358 100.94L94.6978 70.5876L92.1654 65.9742L89.6329 70.5876L72.9747 100.94C72.1915 102.368 72.1914 104.126 72.9745 105.554C73.7576 106.981 75.205 107.861 76.7716 107.861H107.556C109.122 107.861 110.57 106.982 111.354 105.554C112.138 104.127 112.138 102.368 111.354 100.94H111.358ZM76.7716 103.247L92.1654 75.2011L107.556 103.247H76.7716L76.7716 103.247Z" fill="white"/>
<path d="M123.269 105.554C122.486 106.981 121.039 107.861 119.472 107.861H107.556C109.977 107.861 111.941 105.795 111.941 103.247H119.463L98.1183 64.3537L94.6978 70.5876L92.1654 65.9742L94.3215 62.0469C95.1048 60.6194 96.5525 59.7401 98.1192 59.7401C99.6859 59.7401 101.134 60.6194 101.917 62.0469L123.269 100.94C124.052 102.368 124.052 104.126 123.269 105.554Z" fill="#108775"/>
<path d="M499.38 301V271.24H506.16L506.76 276.28C507.68 274.52 509 273.12 510.72 272.08C512.48 271.04 514.54 270.52 516.9 270.52C520.58 270.52 523.44 271.68 525.48 274C527.52 276.32 528.54 279.72 528.54 284.2V301H520.86V284.92C520.86 282.36 520.34 280.4 519.3 279.04C518.26 277.68 516.64 277 514.44 277C512.28 277 510.5 277.76 509.1 279.28C507.74 280.8 507.06 282.92 507.06 285.64V301H499.38ZM547.044 301.72C543.324 301.72 540.444 300.56 538.404 298.24C536.404 295.92 535.404 292.52 535.404 288.04V271.24H543.024V287.32C543.024 289.88 543.544 291.84 544.584 293.2C545.624 294.56 547.264 295.24 549.504 295.24C551.624 295.24 553.364 294.48 554.724 292.96C556.124 291.44 556.824 289.32 556.824 286.6V271.24H564.504V301H557.724L557.124 295.96C556.204 297.72 554.864 299.12 553.104 300.16C551.384 301.2 549.364 301.72 547.044 301.72ZM569.568 301L580.368 286.12L569.568 271.24H577.788L585.348 281.8L592.848 271.24H601.128L590.268 286.12L601.128 301H592.848L585.348 290.44L577.788 301H569.568ZM619.281 301C616.161 301 613.661 300.24 611.781 298.72C609.901 297.2 608.961 294.5 608.961 290.62V277.66H603.861V271.24H608.961L609.861 263.26H616.641V271.24H624.681V277.66H616.641V290.68C616.641 292.12 616.941 293.12 617.541 293.68C618.181 294.2 619.261 294.46 620.781 294.46H624.501V301H619.281ZM628.755 307.66L643.755 254.38H651.255L636.195 307.66H628.755Z" fill="white"/>
<path d="M666.789 301.72C664.229 301.72 662.129 301.32 660.489 300.52C658.849 299.68 657.629 298.58 656.829 297.22C656.029 295.86 655.629 294.36 655.629 292.72C655.629 289.96 656.709 287.72 658.869 286C661.029 284.28 664.269 283.42 668.589 283.42H676.149V282.7C676.149 280.66 675.569 279.16 674.409 278.2C673.249 277.24 671.809 276.76 670.089 276.76C668.529 276.76 667.169 277.14 666.009 277.9C664.849 278.62 664.129 279.7 663.849 281.14H656.349C656.549 278.98 657.269 277.1 658.509 275.5C659.789 273.9 661.429 272.68 663.429 271.84C665.429 270.96 667.669 270.52 670.149 270.52C674.389 270.52 677.729 271.58 680.169 273.7C682.609 275.82 683.829 278.82 683.829 282.7V301H677.289L676.569 296.2C675.689 297.8 674.449 299.12 672.849 300.16C671.289 301.2 669.269 301.72 666.789 301.72ZM668.529 295.72C670.729 295.72 672.429 295 673.629 293.56C674.869 292.12 675.649 290.34 675.969 288.22H669.429C667.389 288.22 665.929 288.6 665.049 289.36C664.169 290.08 663.729 290.98 663.729 292.06C663.729 293.22 664.169 294.12 665.049 294.76C665.929 295.4 667.089 295.72 668.529 295.72ZM702.318 301.72C698.598 301.72 695.718 300.56 693.678 298.24C691.678 295.92 690.678 292.52 690.678 288.04V271.24H698.298V287.32C698.298 289.88 698.818 291.84 699.858 293.2C700.898 294.56 702.538 295.24 704.778 295.24C706.898 295.24 708.638 294.48 709.998 292.96C711.398 291.44 712.098 289.32 712.098 286.6V271.24H719.778V301H712.998L712.398 295.96C711.478 297.72 710.138 299.12 708.378 300.16C706.658 301.2 704.638 301.72 702.318 301.72ZM740.922 301C737.802 301 735.302 300.24 733.422 298.72C731.542 297.2 730.602 294.5 730.602 290.62V277.66H725.502V271.24H730.602L731.502 263.26H738.282V271.24H746.322V277.66H738.282V290.68C738.282 292.12 738.582 293.12 739.182 293.68C739.822 294.2 740.902 294.46 742.422 294.46H746.142V301H740.922ZM752.916 301V257.8H760.596V275.8C761.596 274.16 762.936 272.88 764.616 271.96C766.336 271 768.296 270.52 770.496 270.52C774.176 270.52 777.016 271.68 779.016 274C781.056 276.32 782.076 279.72 782.076 284.2V301H774.456V284.92C774.456 282.36 773.936 280.4 772.896 279.04C771.896 277.68 770.296 277 768.096 277C765.936 277 764.136 277.76 762.696 279.28C761.296 280.8 760.596 282.92 760.596 285.64V301H752.916Z" fill="#00DC82"/>
<path d="M1198.17 547.974L1195.63 552.588L1186.97 536.806L1160.39 585.247H1178.39C1178.39 587.795 1180.35 589.861 1182.77 589.861H1160.39C1158.82 589.861 1157.37 588.981 1156.59 587.553C1155.81 586.126 1155.81 584.368 1156.59 582.94L1183.18 534.499C1183.96 533.071 1185.41 532.192 1186.97 532.192C1188.54 532.192 1189.99 533.071 1190.77 534.499L1198.17 547.974Z" fill="#00C58E"/>
<path d="M1217.36 582.94L1200.7 552.588L1198.17 547.974L1195.63 552.588L1178.97 582.94C1178.19 584.368 1178.19 586.126 1178.97 587.553C1179.76 588.981 1181.21 589.861 1182.77 589.861H1213.56C1215.12 589.861 1216.57 588.982 1217.35 587.554C1218.14 586.127 1218.14 584.368 1217.35 582.94H1217.36ZM1182.77 585.247L1198.17 557.201L1213.56 585.247H1182.77L1182.77 585.247Z" fill="white"/>
<path d="M1229.27 587.554C1228.49 588.981 1227.04 589.861 1225.47 589.861H1213.56C1215.98 589.861 1217.94 587.795 1217.94 585.247H1225.46L1204.12 546.354L1200.7 552.588L1198.17 547.974L1200.32 544.047C1201.1 542.619 1202.55 541.74 1204.12 541.74C1205.69 541.74 1207.13 542.619 1207.92 544.047L1229.27 582.94C1230.05 584.368 1230.05 586.126 1229.27 587.554Z" fill="#108775"/>
<path fill-rule="evenodd" clip-rule="evenodd" d="M76.3173 527L71.4552 531.862C63.6447 539.673 63.6447 552.336 71.4552 560.146L91.5774 580.269C89.2554 583.052 86.7784 585.39 84.2842 587.329C79.9796 590.676 74.0041 590.966 69.494 587.901C59.7097 581.253 52.195 569.569 50.0952 550.743C49.332 543.9 53.2305 537.528 59.2419 534.171L67.7902 529.397C70.4474 527.913 73.3721 527.114 76.3173 527ZM85.6099 529.021L77.112 537.519C72.4257 542.205 72.4258 549.803 77.112 554.49L96.2523 573.63C99.8332 567.566 102.628 560.018 103.882 550.732C104.803 543.909 100.877 537.528 94.8661 534.171L86.3178 529.397C86.0838 529.266 85.8478 529.141 85.6099 529.021Z" fill="url(#paint0_linear)"/>
<path fill-rule="evenodd" clip-rule="evenodd" d="M1190.79 50.5895L1185.93 55.4442C1178.12 63.2546 1178.12 75.9179 1185.93 83.7284L1206.04 103.84C1203.72 106.621 1201.25 108.957 1198.76 110.895C1194.45 114.243 1188.48 114.532 1183.97 111.467C1174.19 104.822 1166.68 93.1435 1164.58 74.3268C1163.81 67.4841 1167.71 61.1121 1173.72 57.7551L1182.26 52.9865C1184.92 51.5031 1187.84 50.7041 1190.79 50.5895ZM1200.08 52.6097L1191.59 61.101C1186.9 65.7873 1186.9 73.3853 1191.59 78.0716L1210.72 97.2013C1214.3 91.1405 1217.09 83.5964 1218.35 74.3163C1219.27 67.4931 1215.34 61.1121 1209.33 57.7551L1200.79 52.9865C1200.56 52.8556 1200.32 52.73 1200.08 52.6097Z" fill="url(#paint1_linear)"/>
<defs>
<filter id="filter0_i" x="327.113" y="353.56" width="624.747" height="104.84" filterUnits="userSpaceOnUse" color-interpolation-filters="sRGB">
<feFlood flood-opacity="0" result="BackgroundImageFix"/>
<feBlend mode="normal" in="SourceGraphic" in2="BackgroundImageFix" result="shape"/>
<feColorMatrix in="SourceAlpha" type="matrix" values="0 0 0 0 0 0 0 0 0 0 0 0 0 0 0 0 0 0 127 0" result="hardAlpha"/>
<feOffset dy="4"/>
<feGaussianBlur stdDeviation="2"/>
<feComposite in2="hardAlpha" operator="arithmetic" k2="-1" k3="1"/>
<feColorMatrix type="matrix" values="0 0 0 0 0 0 0 0 0 0 0 0 0 0 0 0 0 0 0.15 0"/>
<feBlend mode="normal" in2="shape" result="effect1_innerShadow"/>
</filter>
<linearGradient id="paint0_linear" x1="77.2098" y1="534.593" x2="77.2098" y2="567.733" gradientUnits="userSpaceOnUse">
<stop stop-color="#00C591"/>
<stop offset="1" stop-color="#108775"/>
</linearGradient>
<linearGradient id="paint1_linear" x1="1191.68" y1="58.18" x2="1191.68" y2="91.3073" gradientUnits="userSpaceOnUse">
<stop stop-color="#00C591"/>
<stop offset="1" stop-color="#108775"/>
</linearGradient>
</defs>
</svg>
